<svg width="511" height="606" viewBox="0 0 511 606" fill="none" xmlns="http://www.w3.org/2000/svg">
<g clip-path="url(#clip0_1798_12645)">
<rect width="510.153" height="606" rx="48.8171" fill="#FFF3ED"/>
<path d="M166.957 562.715C166.957 654.924 92.2073 729.674 -0.00175476 729.674C-92.2108 729.674 -166.961 654.924 -166.961 562.715C-166.961 470.506 -92.2108 395.756 -0.00175476 395.756C92.2073 395.756 166.957 470.506 166.957 562.715ZM-105.725 562.715C-105.725 621.105 -58.3913 668.439 -0.00175476 668.439C58.3878 668.439 105.722 621.105 105.722 562.715C105.722 504.325 58.3878 456.991 -0.00175476 456.991C-58.3913 456.991 -105.725 504.325 -105.725 562.715Z" fill="#F08C74" fill-opacity="0.1"/>
<path d="M677.11 57.715C677.11 149.924 602.36 224.674 510.151 224.674C417.942 224.674 343.191 149.924 343.191 57.715C343.191 -34.494 417.942 -109.244 510.151 -109.244C602.36 -109.244 677.11 -34.494 677.11 57.715ZM404.427 57.715C404.427 116.105 451.761 163.439 510.151 163.439C568.54 163.439 615.874 116.105 615.874 57.715C615.874 -0.674521 568.54 -48.0086 510.151 -48.0086C451.761 -48.0086 404.427 -0.674521 404.427 57.715Z" fill="#F08C74" fill-opacity="0.1"/>
</g>
<defs>
<clipPath id="clip0_1798_12645">
<rect width="510.153" height="606" rx="48.8171" fill="white"/>
</clipPath>
</defs>
</svg>
