<svg width="187" height="210" viewBox="0 0 187 210" fill="none" xmlns="http://www.w3.org/2000/svg">
<g clip-path="url(#clip0_1763_10246)">
<rect width="186.271" height="210" rx="31.681" fill="white"/>
<path d="M259.83 32.0343C259.83 70.0389 229.021 100.848 191.017 100.848C153.012 100.848 122.203 70.0389 122.203 32.0343C122.203 -5.97042 153.012 -36.7793 191.017 -36.7793C229.021 -36.7793 259.83 -5.97042 259.83 32.0343ZM147.442 32.0343C147.442 56.1 166.951 75.6091 191.017 75.6091C215.082 75.6091 234.592 56.1 234.592 32.0343C234.592 7.96854 215.082 -11.5406 191.017 -11.5406C166.951 -11.5406 147.442 7.96854 147.442 32.0343Z" fill="#F08C74" fill-opacity="0.1"/>
</g>
<defs>
<clipPath id="clip0_1763_10246">
<rect width="186.271" height="210" rx="31.681" fill="white"/>
</clipPath>
</defs>
</svg>
